<svg xmlns="http://www.w3.org/2000/svg" width="195" height="100" viewBox="0 0 195 100" fill="none"><ellipse cx="97.5" cy="50" rx="97.5" ry="50" fill="#004cff"/><path d="M98 2.001v95.997l-.5.002C44.757 98 2 76.51 2 50S44.757 2 97.5 2z" fill="#fff"/><g filter="url(#a)"><circle cx="98" cy="50" r="20" fill="#fff"/></g><g filter="url(#b)"><path d="M98 48.667V70c-11.046 0-20-8.954-20-20s8.954-20 20-20z" fill="#004cff"/></g><path d="M98 20.5c16.292 0 29.5 13.208 29.5 29.5S114.292 79.5 98 79.5 68.5 66.292 68.5 50 81.708 20.5 98 20.5Z" stroke="#004cff"/><circle cx="110" cy="33" r="5" fill="#fff"/><defs><filter id="a" x="74" y="30" width="48" height="48" filterUnits="userSpaceOnUse" color-interpolation-filters="sRGB"><feFlood flood-opacity="0" result="BackgroundImageFix"/><feColorMatrix in="SourceAlpha" values="0 0 0 0 0 0 0 0 0 0 0 0 0 0 0 0 0 0 127 0" result="hardAlpha"/><feOffset dy="4"/><feGaussianBlur stdDeviation="2"/><feComposite in2="hardAlpha" operator="out"/><feColorMatrix values="0 0 0 0 0 0 0 0 0 0 0 0 0 0 0 0 0 0 0.25 0"/><feBlend in2="BackgroundImageFix" result="effect1_dropShadow_2082_2"/><feBlend in="SourceGraphic" in2="effect1_dropShadow_2082_2" result="shape"/></filter><filter id="b" x="74" y="30" width="28" height="48" filterUnits="userSpaceOnUse" color-interpolation-filters="sRGB"><feFlood flood-opacity="0" result="BackgroundImageFix"/><feColorMatrix in="SourceAlpha" values="0 0 0 0 0 0 0 0 0 0 0 0 0 0 0 0 0 0 127 0" result="hardAlpha"/><feOffset dy="4"/><feGaussianBlur stdDeviation="2"/><feComposite in2="hardAlpha" operator="out"/><feColorMatrix values="0 0 0 0 0 0 0 0 0 0 0 0 0 0 0 0 0 0 0.25 0"/><feBlend in2="BackgroundImageFix" result="effect1_dropShadow_2082_2"/><feBlend in="SourceGraphic" in2="effect1_dropShadow_2082_2" result="shape"/></filter></defs></svg>